<?xml version="1.0" encoding="UTF-8" standalone="no"?>
<!-- Created with Inkscape (http://www.inkscape.org/) -->

<svg
   xmlns:dc="http://purl.org/dc/elements/1.1/"
   xmlns:cc="http://creativecommons.org/ns#"
   xmlns:rdf="http://www.w3.org/1999/02/22-rdf-syntax-ns#"
   xmlns:svg="http://www.w3.org/2000/svg"
   xmlns="http://www.w3.org/2000/svg"
   xmlns:sodipodi="http://sodipodi.sourceforge.net/DTD/sodipodi-0.dtd"
   xmlns:inkscape="http://www.inkscape.org/namespaces/inkscape"
   width="62.463001mm"
   height="6.7670002mm"
   viewBox="0 0 62.463001 6.7670002"
   version="1.1"
   id="svg8"
   inkscape:version="0.92.4 (unknown)"
   sodipodi:docname="logo.svg">
  <defs
     id="defs2" />
  <sodipodi:namedview
     id="base"
     pagecolor="#ffffff"
     bordercolor="#666666"
     borderopacity="1.0"
     inkscape:pageopacity="0.0"
     inkscape:pageshadow="2"
     inkscape:zoom="1.979899"
     inkscape:cx="66.961505"
     inkscape:cy="35.572361"
     inkscape:document-units="mm"
     inkscape:current-layer="text28"
     showgrid="false"
     inkscape:lockguides="true"
     inkscape:window-width="2560"
     inkscape:window-height="1376"
     inkscape:window-x="0"
     inkscape:window-y="208"
     inkscape:window-maximized="1" />
  <metadata
     id="metadata5">
    <rdf:RDF>
      <cc:Work
         rdf:about="">
        <dc:format>image/svg+xml</dc:format>
        <dc:type
           rdf:resource="http://purl.org/dc/dcmitype/StillImage" />
        <dc:title />
      </cc:Work>
    </rdf:RDF>
  </metadata>
  <g
     inkscape:label="Ebene 1"
     inkscape:groupmode="layer"
     id="layer1"
     transform="translate(0,-290.233)">
    <flowRoot
       xml:space="preserve"
       id="flowRoot10"
       style="font-style:normal;font-variant:normal;font-weight:normal;font-stretch:normal;font-size:40px;line-height:1.25;font-family:Anurati;-inkscape-font-specification:Anurati;letter-spacing:0px;word-spacing:0px;fill:#000000;fill-opacity:1;stroke:none"
       transform="scale(0.26458333)"><flowRegion
         id="flowRegion12"
         style="font-style:normal;font-variant:normal;font-weight:normal;font-stretch:normal;font-family:Anurati;-inkscape-font-specification:Anurati"><rect
           id="rect14"
           width="557.14288"
           height="185.71428"
           x="45.714287"
           y="56.805401"
           style="font-style:normal;font-variant:normal;font-weight:normal;font-stretch:normal;font-family:Anurati;-inkscape-font-specification:Anurati" /></flowRegion><flowPara
         id="flowPara16" /></flowRoot>    <flowRoot
       xml:space="preserve"
       id="flowRoot18"
       style="font-style:normal;font-variant:normal;font-weight:normal;font-stretch:normal;font-size:40px;line-height:1.25;font-family:Anurati;-inkscape-font-specification:Anurati;letter-spacing:0px;word-spacing:0px;fill:#000000;fill-opacity:1;stroke:none"
       transform="scale(0.26458333)"><flowRegion
         id="flowRegion20"
         style="font-style:normal;font-variant:normal;font-weight:normal;font-stretch:normal;font-family:Anurati;-inkscape-font-specification:Anurati"><rect
           id="rect22"
           width="396.42856"
           height="185"
           x="95"
           y="61.091114"
           style="font-style:normal;font-variant:normal;font-weight:normal;font-stretch:normal;font-family:Anurati;-inkscape-font-specification:Anurati" /></flowRegion><flowPara
         id="flowPara24" /></flowRoot>    <g
       aria-label="FABACCESS"
       style="font-style:normal;font-weight:normal;font-size:8.45906162px;line-height:1.25;font-family:sans-serif;letter-spacing:0px;word-spacing:0px;fill:#000000;fill-opacity:1;stroke:none;stroke-width:0.21147655"
       id="text28">
      <path
         d="M 0,293.60792 V 297 h 1.1250552 v -2.25011 h 3.3836246 v -1.14197 H 1.1250552 Z m 0,-3.37517 1.1250552,1.13351 h 3.3836246 v -1.13351 z"
         style="font-style:normal;font-variant:normal;font-weight:normal;font-stretch:normal;font-family:Anurati;-inkscape-font-specification:Anurati;letter-spacing:1.94558406px;word-spacing:0px;fill:#008000;stroke-width:0.21147655"
         id="path17" />
      <path
         d="m 8.3596713,294.74989 0.9981693,-1.98788 0.9897104,1.98788 H 11.61641 L 9.3578406,290.23275 5.9742159,297 h 1.2519412 l 0.5752161,-1.13351 z m 3.8150367,1.12505 H 10.922767 L 11.481065,297 h 1.2604 z"
         style="font-style:normal;font-variant:normal;font-weight:normal;font-stretch:normal;font-family:Anurati;-inkscape-font-specification:Anurati;letter-spacing:1.94558406px;word-spacing:0px;fill:#008000;stroke-width:0.21147655"
         id="path19" />
      <path
         d="m 18.933505,292.20371 c 0,-0.27069 -0.05075,-0.52446 -0.152263,-0.76131 -0.101508,-0.24532 -0.245313,-0.44833 -0.422953,-0.62597 -0.17764,-0.1861 -0.389117,-0.32145 -0.634429,-0.43142 -0.245313,-0.1015 -0.499085,-0.15226 -0.761316,-0.15226 H 13.29977 l 1.125056,1.13351 h 2.537718 c 0.109968,0 0.219936,0.0169 0.321444,0.0592 0.109968,0.0423 0.203018,0.10151 0.279149,0.1861 0.07613,0.0761 0.135345,0.16918 0.177641,0.27069 0.0423,0.10151 0.06767,0.21147 0.06767,0.32144 0,0.11843 -0.02538,0.2284 -0.06767,0.32991 -0.0423,0.1015 -0.101509,0.19455 -0.177641,0.27069 -0.07613,0.0846 -0.169181,0.1438 -0.279149,0.18609 -0.101508,0.0508 -0.211476,0.0677 -0.321444,0.0677 H 14.424826 13.976495 13.29977 v 1.12505 h 1.125056 2.537718 c 0.118427,0 0.228395,0.0254 0.338363,0.0677 0.101508,0.0423 0.186099,0.10997 0.26223,0.1861 0.07613,0.0761 0.135345,0.16919 0.177641,0.27069 0.0423,0.10151 0.06767,0.21148 0.06767,0.32145 0,0.10997 -0.02538,0.21993 -0.06767,0.32144 -0.0423,0.10151 -0.101509,0.19456 -0.177641,0.27069 -0.07613,0.0846 -0.169181,0.14381 -0.279149,0.1861 -0.101508,0.0423 -0.211476,0.0592 -0.321444,0.0592 H 14.424826 V 297 h 2.537718 c 0.27069,0 0.524462,-0.0507 0.761316,-0.15226 0.245312,-0.10997 0.456789,-0.24532 0.634429,-0.43142 0.17764,-0.17764 0.321445,-0.38065 0.422953,-0.62597 0.101509,-0.23685 0.152263,-0.49062 0.152263,-0.76131 0,-0.5583 -0.194558,-1.03201 -0.592134,-1.41266 0.397576,-0.38912 0.592134,-0.86283 0.592134,-1.41267 z"
         style="font-style:normal;font-variant:normal;font-weight:normal;font-stretch:normal;font-family:Anurati;-inkscape-font-specification:Anurati;letter-spacing:1.94558406px;word-spacing:0px;fill:#008000;stroke-width:0.21147655"
         id="path21" />
      <path
         d="m 23.581756,294.74989 0.99817,-1.98788 0.98971,1.98788 h 1.268859 L 24.579926,290.23275 21.196301,297 h 1.251941 l 0.575216,-1.13351 z m 3.815037,1.12505 H 26.144852 L 26.70315,297 h 1.2604 z"
         style="font-style:normal;font-variant:normal;font-weight:normal;font-stretch:normal;font-family:Anurati;-inkscape-font-specification:Anurati;letter-spacing:1.94558406px;word-spacing:0px;fill:#008000;stroke-width:0.21147655"
         id="path23" />
      <path
         d="M 30.781342,296.72931 C 31.187377,296.90695 31.627248,297 32.092496,297 c 0.465249,0 0.90512,-0.0846 1.311155,-0.26223 l -1.311155,-0.87128 c -0.312985,0 -0.600593,-0.0592 -0.879742,-0.16919 -0.27069,-0.11842 -0.507544,-0.27914 -0.710561,-0.49062 -0.211477,-0.20302 -0.372199,-0.43987 -0.490626,-0.71056 -0.118427,-0.27915 -0.17764,-0.56676 -0.17764,-0.87974 0,-0.31299 0.05921,-0.6006 0.17764,-0.87975 0.118427,-0.27069 0.279149,-0.50754 0.482167,-0.71056 0.203017,-0.21147 0.439871,-0.3722 0.71902,-0.49062 0.27069,-0.10997 0.566757,-0.16919 0.879742,-0.16919 0.609053,0 1.141974,0.21148 1.590304,0.65135 l 0.803611,-0.78669 c -0.312985,-0.31299 -0.676725,-0.5583 -1.08276,-0.73594 -0.406035,-0.17764 -0.845906,-0.26223 -1.311155,-0.26223 -0.465248,0 -0.905119,0.0931 -1.311154,0.27069 -0.414494,0.17764 -0.769775,0.41449 -1.08276,0.72748 -0.304526,0.30453 -0.549839,0.65981 -0.727479,1.06584 -0.177641,0.4145 -0.27069,0.85437 -0.27069,1.31962 0,0.45678 0.09305,0.8882 0.27069,1.30269 0.17764,0.41449 0.422953,0.76978 0.727479,1.08276 0.312985,0.30453 0.668266,0.54984 1.08276,0.72748 z"
         style="font-style:normal;font-variant:normal;font-weight:normal;font-stretch:normal;font-family:Anurati;-inkscape-font-specification:Anurati;letter-spacing:1.94558406px;word-spacing:0px;fill:#008000;stroke-width:0.21147655"
         id="path25" />
      <path
         d="M 38.821671,296.72931 C 39.227706,296.90695 39.667577,297 40.132825,297 c 0.465249,0 0.90512,-0.0846 1.311155,-0.26223 l -1.311155,-0.87128 c -0.312985,0 -0.600593,-0.0592 -0.879742,-0.16919 -0.27069,-0.11842 -0.507544,-0.27914 -0.710561,-0.49062 -0.211477,-0.20302 -0.372199,-0.43987 -0.490626,-0.71056 -0.118427,-0.27915 -0.17764,-0.56676 -0.17764,-0.87974 0,-0.31299 0.05921,-0.6006 0.17764,-0.87975 0.118427,-0.27069 0.279149,-0.50754 0.482167,-0.71056 0.203017,-0.21147 0.439871,-0.3722 0.71902,-0.49062 0.27069,-0.10997 0.566757,-0.16919 0.879742,-0.16919 0.609053,0 1.141974,0.21148 1.590304,0.65135 l 0.803611,-0.78669 c -0.312985,-0.31299 -0.676725,-0.5583 -1.08276,-0.73594 -0.406035,-0.17764 -0.845906,-0.26223 -1.311155,-0.26223 -0.465248,0 -0.905119,0.0931 -1.311154,0.27069 -0.414494,0.17764 -0.769775,0.41449 -1.08276,0.72748 -0.304526,0.30453 -0.549839,0.65981 -0.727479,1.06584 -0.177641,0.4145 -0.27069,0.85437 -0.27069,1.31962 0,0.45678 0.09305,0.8882 0.27069,1.30269 0.17764,0.41449 0.422953,0.76978 0.727479,1.08276 0.312985,0.30453 0.668266,0.54984 1.08276,0.72748 z"
         style="font-style:normal;font-variant:normal;font-weight:normal;font-stretch:normal;font-family:Anurati;-inkscape-font-specification:Anurati;letter-spacing:1.94558406px;word-spacing:0px;fill:#008000;stroke-width:0.21147655"
         id="path27" />
      <path
         d="M 43.629337,296.90695 V 297 h 4.50868 v -1.13351 h -3.383624 z m 0,-6.6742 1.125056,1.13351 h 3.383624 v -1.13351 z m 0,2.82533 v 1.12505 h 1.125056 3.383624 v -1.12505 h -3.383624 z"
         style="font-style:normal;font-variant:normal;font-weight:normal;font-stretch:normal;font-family:Anurati;-inkscape-font-specification:Anurati;letter-spacing:1.94558406px;word-spacing:0px;fill:#008000;stroke-width:0.21147655"
         id="path29" />
      <path
         d="m 53.680148,294.18313 c 0.236853,0 0.431412,0.0846 0.600593,0.25377 0.160722,0.16919 0.253772,0.36374 0.253772,0.59214 0,0.11843 -0.02538,0.22839 -0.06767,0.3299 -0.04229,0.10997 -0.101508,0.19456 -0.17764,0.27069 -0.07613,0.0761 -0.169181,0.13535 -0.279149,0.17764 -0.101509,0.0423 -0.211476,0.0592 -0.329903,0.0592 V 297 c 0.549839,0 1.015087,-0.19456 1.395745,-0.57522 0.389117,-0.38911 0.583675,-0.85436 0.583675,-1.39574 0,-0.54138 -0.194558,-1.00663 -0.583675,-1.39575 -0.380658,-0.38065 -0.845906,-0.57521 -1.395745,-0.57521 h -1.683354 c -0.245312,0 -0.439871,-0.0846 -0.609052,-0.25377 -0.160722,-0.16919 -0.236854,-0.36374 -0.236854,-0.6006 0,-0.10997 0.01692,-0.21993 0.05921,-0.32144 0.0423,-0.10151 0.101508,-0.19456 0.17764,-0.27069 0.08459,-0.0846 0.169181,-0.14381 0.279149,-0.1861 0.101509,-0.0423 0.211477,-0.0592 0.329903,-0.0592 v -1.13351 c -0.549839,0 -1.015087,0.19456 -1.395745,0.58368 -0.380657,0.38911 -0.575216,0.8459 -0.575216,1.38728 0,0.54984 0.194559,1.01509 0.575216,1.40421 0.380658,0.38065 0.845906,0.57521 1.395745,0.57521 z"
         style="font-style:normal;font-variant:normal;font-weight:normal;font-stretch:normal;font-family:Anurati;-inkscape-font-specification:Anurati;letter-spacing:1.94558406px;word-spacing:0px;fill:#008000;stroke-width:0.21147655"
         id="path31" />
      <path
         d="m 60.483874,294.18313 c 0.236854,0 0.431412,0.0846 0.600593,0.25377 0.160722,0.16919 0.253772,0.36374 0.253772,0.59214 0,0.11843 -0.02538,0.22839 -0.06767,0.3299 -0.0423,0.10997 -0.101509,0.19456 -0.177641,0.27069 -0.07613,0.0761 -0.169181,0.13535 -0.279149,0.17764 -0.101508,0.0423 -0.211476,0.0592 -0.329903,0.0592 V 297 c 0.549839,0 1.015087,-0.19456 1.395745,-0.57522 0.389117,-0.38911 0.583675,-0.85436 0.583675,-1.39574 0,-0.54138 -0.194558,-1.00663 -0.583675,-1.39575 -0.380658,-0.38065 -0.845906,-0.57521 -1.395745,-0.57521 h -1.683353 c -0.245313,0 -0.439872,-0.0846 -0.609053,-0.25377 -0.160722,-0.16919 -0.236853,-0.36374 -0.236853,-0.6006 0,-0.10997 0.01692,-0.21993 0.05921,-0.32144 0.0423,-0.10151 0.101509,-0.19456 0.17764,-0.27069 0.08459,-0.0846 0.169181,-0.14381 0.279149,-0.1861 0.101509,-0.0423 0.211477,-0.0592 0.329904,-0.0592 v -1.13351 c -0.549839,0 -1.015088,0.19456 -1.395745,0.58368 -0.380658,0.38911 -0.575217,0.8459 -0.575217,1.38728 0,0.54984 0.194559,1.01509 0.575217,1.40421 0.380657,0.38065 0.845906,0.57521 1.395745,0.57521 z"
         style="font-style:normal;font-variant:normal;font-weight:normal;font-stretch:normal;font-family:Anurati;-inkscape-font-specification:Anurati;letter-spacing:1.94558406px;word-spacing:0px;fill:#008000;stroke-width:0.21147655"
         id="path33" />
    </g>
  </g>
</svg>
